<?xml version="1.0" encoding="utf-8"?>
<!-- Generator: Adobe Illustrator 24.0.1, SVG Export Plug-In . SVG Version: 6.00 Build 0)  -->
<svg version="1.1" id="Layer_1" xmlns="http://www.w3.org/2000/svg" xmlns:xlink="http://www.w3.org/1999/xlink" x="0px" y="0px"
	 viewBox="0 0 269 56" style="enable-background:new 0 0 269 56;" xml:space="preserve">
<style type="text/css">
	.st0{fill-rule:evenodd;clip-rule:evenodd;fill:#00BAC7;}
	.st1{fill-rule:evenodd;clip-rule:evenodd;fill:#EE3648;}
	.st2{fill-rule:evenodd;clip-rule:evenodd;fill:#7A1B54;}
	.st3{fill-rule:evenodd;clip-rule:evenodd;fill:#FFFFFF;stroke:#EE3648;stroke-width:0.216;stroke-miterlimit:2.6131;}
	.st4{fill-rule:evenodd;clip-rule:evenodd;fill:url(#SVGID_1_);stroke:#00BAC7;stroke-width:0.5;stroke-miterlimit:2.6131;}
	.st5{fill-rule:evenodd;clip-rule:evenodd;fill:#00BAC7;stroke:#00BAC7;stroke-width:0.5;stroke-miterlimit:2.6131;}
	.st6{fill-rule:evenodd;clip-rule:evenodd;fill:none;stroke:#EE3648;stroke-width:0.5;stroke-miterlimit:2.6131;}
	.st7{fill-rule:evenodd;clip-rule:evenodd;fill:none;stroke:#EE3648;stroke-width:0.9598;stroke-miterlimit:2.6131;}
	.st8{fill-rule:evenodd;clip-rule:evenodd;fill:none;stroke:#00BAC7;stroke-width:0.216;stroke-miterlimit:2.6131;}
	.st9{fill-rule:evenodd;clip-rule:evenodd;fill:#EE3648;stroke:#EE3648;stroke-width:0.216;stroke-miterlimit:2.6131;}
	.st10{fill:#231F20;}
	.st11{fill-rule:evenodd;clip-rule:evenodd;fill:none;stroke:#231F20;stroke-width:0.75;stroke-miterlimit:2.6131;}
</style>
<g>
	<path class="st0" d="M70.7,38c-0.4-0.9-0.9-2.2-1.5-3.7c-0.6-1.5-1.1-3.5-1.7-5.9c0.2-0.2,0.5-0.5,1-0.6c0.4-0.2,0.8-0.3,1.3-0.3
		c0.6,0,1.1,0.1,1.5,0.4c0.4,0.3,0.7,0.7,0.9,1.4c0.4,1.4,0.8,2.7,1.3,4.1c0.4,1.3,0.9,2.7,1.3,4.1h0.1c0.2-0.6,0.5-1.4,0.7-2.1
		c0.2-0.8,0.5-1.6,0.7-2.4c0.2-0.8,0.4-1.7,0.6-2.5c0.2-0.8,0.4-1.7,0.5-2.5c0.6-0.3,1.2-0.5,1.8-0.5c0.6,0,1.1,0.1,1.6,0.4
		c0.4,0.3,0.7,0.7,0.7,1.3c0,0.7-0.1,1.6-0.4,2.6c-0.2,1.1-0.5,2.2-0.9,3.3c-0.4,1.1-0.8,2.3-1.3,3.4c-0.5,1.1-1,2.1-1.5,3
		c-1.1,1.8-2,3.1-2.9,4c-0.9,0.9-1.7,1.3-2.6,1.3c-0.7,0-1.3-0.2-1.7-0.6c-0.5-0.4-0.7-1-0.8-1.6c0.6-0.5,1.2-1.2,1.9-1.9
		c0.7-0.7,1.2-1.4,1.7-2.1c-0.3-0.1-0.7-0.3-1-0.6C71.5,39.6,71.1,39,70.7,38z"/>
	<path class="st0" d="M89.2,38.7c0.4,0,0.8,0,1.2-0.1c0.4-0.1,0.7-0.2,0.9-0.3v-2.6L89,35.8c-0.6,0.1-1.1,0.2-1.5,0.4
		s-0.6,0.5-0.6,1c0,0.5,0.2,0.8,0.5,1.1C87.8,38.6,88.4,38.7,89.2,38.7L89.2,38.7z M89,27.4c1,0,1.9,0.1,2.7,0.3
		c0.8,0.2,1.5,0.5,2.1,0.9c0.6,0.4,1,0.9,1.3,1.6c0.3,0.6,0.5,1.4,0.5,2.3v6.4c0,0.5-0.1,0.9-0.4,1.2c-0.3,0.3-0.6,0.5-0.9,0.8
		c-0.6,0.4-1.3,0.6-2.2,0.8c-0.9,0.2-1.8,0.3-2.9,0.3c-2,0-3.5-0.4-4.7-1.1c-1.2-0.7-1.7-1.9-1.7-3.4c0-1.3,0.4-2.3,1.2-3
		c0.8-0.7,2-1.1,3.6-1.3l3.8-0.4v-0.3c0-0.6-0.2-1.1-0.7-1.3c-0.5-0.3-1.2-0.4-2.1-0.4c-0.7,0-1.4,0.1-2.1,0.3
		c-0.7,0.2-1.3,0.4-1.9,0.6c-0.2-0.2-0.4-0.4-0.6-0.7c-0.2-0.3-0.2-0.6-0.2-1c0-0.8,0.4-1.4,1.3-1.8c0.5-0.2,1.2-0.4,1.9-0.5
		C87.6,27.4,88.3,27.4,89,27.4z"/>
	<path class="st0" d="M105.6,41.9c-0.5,0-0.9,0-1.4-0.1c-0.4-0.1-0.8-0.2-1.1-0.3v5.1c-0.2,0.1-0.5,0.1-0.8,0.2
		c-0.3,0.1-0.7,0.1-1.1,0.1c-0.9,0-1.5-0.1-1.8-0.4c-0.4-0.3-0.6-0.8-0.6-1.6V30.7c0-0.5,0.1-0.9,0.3-1.2c0.2-0.3,0.5-0.6,0.9-0.8
		c0.6-0.4,1.3-0.7,2.2-0.9c0.9-0.2,1.9-0.4,3-0.4c1.1,0,2.1,0.1,3,0.4c0.9,0.3,1.7,0.7,2.4,1.3c0.7,0.6,1.2,1.3,1.6,2.2
		c0.4,0.9,0.6,2,0.6,3.2c0,1.2-0.2,2.3-0.5,3.2c-0.4,0.9-0.8,1.7-1.5,2.3c-0.6,0.6-1.4,1.1-2.2,1.4
		C107.5,41.7,106.6,41.9,105.6,41.9L105.6,41.9z M104.9,38.4c1,0,1.8-0.3,2.4-1c0.6-0.6,0.8-1.6,0.8-2.9c0-1.3-0.3-2.3-0.8-2.9
		c-0.5-0.6-1.3-0.9-2.3-0.9c-0.4,0-0.8,0.1-1.1,0.2c-0.3,0.1-0.6,0.2-0.9,0.4V38c0.3,0.2,0.5,0.3,0.9,0.4
		C104.2,38.4,104.5,38.4,104.9,38.4z"/>
	<path class="st0" d="M120.9,38.7c0.4,0,0.8,0,1.2-0.1c0.4-0.1,0.7-0.2,0.9-0.3v-2.6l-2.3,0.2c-0.6,0.1-1.1,0.2-1.5,0.4
		s-0.6,0.5-0.6,1c0,0.5,0.2,0.8,0.5,1.1C119.6,38.6,120.1,38.7,120.9,38.7L120.9,38.7z M120.7,27.4c1,0,1.9,0.1,2.7,0.3
		c0.8,0.2,1.5,0.5,2.1,0.9c0.6,0.4,1,0.9,1.3,1.6c0.3,0.6,0.5,1.4,0.5,2.3v6.4c0,0.5-0.1,0.9-0.4,1.2c-0.3,0.3-0.6,0.5-0.9,0.8
		c-0.6,0.4-1.3,0.6-2.2,0.8c-0.9,0.2-1.8,0.3-2.9,0.3c-2,0-3.5-0.4-4.7-1.1c-1.2-0.7-1.7-1.9-1.7-3.4c0-1.3,0.4-2.3,1.2-3
		c0.8-0.7,2-1.1,3.6-1.3l3.8-0.4v-0.3c0-0.6-0.2-1.1-0.7-1.3c-0.5-0.3-1.2-0.4-2.1-0.4c-0.7,0-1.4,0.1-2.1,0.3
		c-0.7,0.2-1.3,0.4-1.9,0.6c-0.2-0.2-0.4-0.4-0.6-0.7c-0.2-0.3-0.2-0.6-0.2-1c0-0.8,0.4-1.4,1.3-1.8c0.5-0.2,1.2-0.4,1.9-0.5
		C119.3,27.4,120,27.4,120.7,27.4z"/>
	<path class="st0" d="M134.8,41.4c-0.2,0.1-0.5,0.1-0.8,0.2c-0.3,0-0.7,0.1-1.1,0.1c-0.9,0-1.5-0.1-1.8-0.4
		c-0.4-0.3-0.6-0.8-0.6-1.6V31c0-0.5,0.1-1,0.4-1.4c0.3-0.4,0.6-0.7,1.1-1c0.6-0.4,1.4-0.7,2.3-0.9c0.9-0.2,1.8-0.3,2.8-0.3
		c2,0,3,0.7,3,2c0,0.3,0,0.6-0.1,0.9c-0.1,0.3-0.2,0.5-0.3,0.7c-0.4-0.1-1-0.1-1.6-0.1c-0.5,0-1.1,0.1-1.6,0.2
		c-0.5,0.1-1,0.3-1.5,0.5V41.4z"/>
	<path class="st1" d="M189.8,39.1c0.4,0,0.8,0,1.2-0.1c0.4-0.1,0.7-0.2,0.9-0.3V36l-2.3,0.2c-0.6,0.1-1.1,0.2-1.5,0.4
		c-0.4,0.2-0.6,0.5-0.6,1c0,0.5,0.2,0.8,0.5,1.1C188.4,39,189,39.1,189.8,39.1L189.8,39.1z M189.6,27.7c1,0,1.9,0.1,2.7,0.3
		c0.8,0.2,1.5,0.5,2.1,0.9c0.6,0.4,1,0.9,1.3,1.6c0.3,0.6,0.5,1.4,0.5,2.3v6.4c0,0.5-0.1,0.9-0.4,1.2c-0.3,0.3-0.6,0.5-0.9,0.8
		c-0.6,0.4-1.3,0.6-2.2,0.8c-0.9,0.2-1.8,0.3-2.9,0.3c-2,0-3.5-0.4-4.7-1.1c-1.2-0.7-1.7-1.9-1.7-3.4c0-1.3,0.4-2.3,1.2-3
		c0.8-0.7,2-1.1,3.6-1.3l3.8-0.4v-0.3c0-0.6-0.2-1.1-0.7-1.3c-0.5-0.3-1.2-0.4-2.1-0.4c-0.7,0-1.4,0.1-2.1,0.3
		c-0.7,0.2-1.3,0.4-1.9,0.6c-0.2-0.2-0.4-0.4-0.6-0.7c-0.2-0.3-0.2-0.6-0.2-1c0-0.8,0.4-1.4,1.3-1.8c0.5-0.2,1.2-0.4,1.9-0.5
		C188.2,27.8,188.9,27.7,189.6,27.7z"/>
	<path class="st1" d="M205.8,27.7c0.4,0,0.8,0,1.2,0.1c0.4,0.1,0.7,0.2,1.1,0.3v-4.8c0.2-0.1,0.5-0.1,0.8-0.2
		c0.3-0.1,0.7-0.1,1.1-0.1c0.9,0,1.5,0.1,1.8,0.4c0.4,0.3,0.6,0.8,0.6,1.6V39c0,0.5-0.1,0.8-0.3,1.2c-0.2,0.3-0.5,0.6-0.9,0.9
		c-0.5,0.3-1.2,0.6-2,0.9c-0.8,0.3-1.8,0.4-2.9,0.4c-2.4,0-4.3-0.6-5.6-1.8c-1.4-1.2-2.1-3-2.1-5.4c0-1.3,0.2-2.3,0.6-3.2
		c0.4-0.9,0.9-1.7,1.5-2.3c0.6-0.6,1.4-1.1,2.3-1.4C203.9,27.9,204.8,27.7,205.8,27.7L205.8,27.7z M208.2,31.6
		c-0.2-0.1-0.5-0.2-0.8-0.3c-0.3-0.1-0.6-0.1-0.9-0.1c-1,0-1.8,0.3-2.4,0.9c-0.6,0.6-0.9,1.6-0.9,3c0,1.3,0.3,2.3,0.9,2.9
		c0.6,0.6,1.4,0.9,2.4,0.9c0.4,0,0.8,0,1.1-0.1c0.3-0.1,0.6-0.2,0.8-0.3V31.6z"/>
	<path class="st1" d="M220.2,41.8c-0.2,0.1-0.5,0.1-0.8,0.2c-0.3,0-0.7,0.1-1.1,0.1c-0.9,0-1.5-0.1-1.8-0.4
		c-0.4-0.3-0.6-0.8-0.6-1.6V23.3c0.2-0.1,0.5-0.1,0.8-0.2c0.3-0.1,0.7-0.1,1.1-0.1c0.9,0,1.5,0.1,1.8,0.4c0.4,0.3,0.6,0.8,0.6,1.6
		v3.3c0.4-0.2,0.8-0.3,1.4-0.5c0.5-0.1,1-0.2,1.6-0.2c1.8,0,3.2,0.5,4.3,1.4c1,0.9,1.6,2.3,1.6,4.1v8.6c-0.2,0.1-0.5,0.1-0.8,0.2
		c-0.3,0-0.7,0.1-1.1,0.1c-0.9,0-1.5-0.1-1.8-0.4c-0.4-0.3-0.6-0.8-0.6-1.6v-6.5c0-0.9-0.2-1.5-0.6-1.8c-0.4-0.4-1-0.5-1.6-0.5
		c-0.4,0-0.8,0.1-1.2,0.2c-0.4,0.1-0.7,0.3-1,0.4V41.8z"/>
	<path class="st0" d="M39.7,20.5c-0.4,0.4-1.8,2.9-2.2,3.5c-0.4,0.6-0.7,1.2-1.1,1.8c-0.3,0.5-0.9,1.3-1.1,1.8l-0.1,0l0.3,0.6
		c0.3-0.3,0.2,0.1,0.5-0.3c0.3,0.2,0.5-0.3-0.1,0c0,0-0.1,0-0.1,0l-0.4,0.1c0.4,0.9,5.4,7.8,6,8.7c1,1.3,6.4,7.6,7.9,8.1
		c0.3-0.5,0-0.8,0.5-0.5c0.4,0-0.2-0.5,0.2-0.3c-0.6,0.4,0.2,0-0.7,0.5c0,1.1,1.8,1.4,2.8,1.5c1.5,0,2.6-0.7,3.5-1.4
		c3.7-2.9,7.2-10.8,9.1-15.3c0.4-1.1,0.9-2.6,1.4-3.5c0.1-0.5,0.4-1.4,0.7-1.8c0-0.6,0.8-2.7,1.1-3.5c0.3-0.9,1-2.6,0.9-3.7
		c-0.1-2.7-3.1-4.3-5.3-2.7c-1.4,1-1.9,4-2.8,6.4c-1.2,3.3-3.8,9.7-6.6,11.8c-2.4,1.7-4.5-0.6-5.8-1.9c-1.5-1.4-3-3.1-4.4-4.8
		c-0.7-0.9-1.4-1.7-2-2.5L39.7,20.5z"/>
	<path class="st1" d="M35.2,27.7c-0.4-0.3-0.9-1.3-1.2-1.8c-0.4-0.5-0.8-1.2-1.1-1.8c-0.4-0.7-1.7-3-2.2-3.6l-4,5.1
		c-1.4,1.7-2.9,3.5-4.4,4.8c-1.4,1.3-3.6,3.6-5.9,2c-1.5-1.1-3-3.5-3.9-5.3c-1.4-2.7-3-6.9-4-10c-0.4-1.4-0.6-2.2-1.7-3
		c-2.2-1.6-5.2,0.1-5.3,2.8c0.2,2.9,3.6,10.9,3.1,9.6C6.1,27,4.8,24.8,5,25.3c0.5,0.6,0.5,1.1,0.1,1.4l-0.4-0.2
		c0.6,2.5,4.2,9.7,5.3,11.9c6.6,12,11.1,8.4,18.2-0.5C28.8,36.9,34.7,28.8,35.2,27.7z"/>
	<path class="st0" d="M50.6,17c-7.5,1.9-4.8,12.5,1.9,11.2c2.6-0.5,4.9-3.3,4.3-6.7C56.3,18.8,53.6,16.3,50.6,17z"/>
	<path class="st1" d="M18.1,17c-7.7,1.5-4.9,12.5,1.6,11.2c2.8-0.5,5-3.2,4.5-6.5C23.8,18.9,21.2,16.4,18.1,17z"/>
	<path class="st0" d="M30.6,20.3c0.4-0.3,1.8-2.3,2.3-3c0.5-0.7,1.8-2.8,2.3-3.2l0-0.2c-0.5-0.4-3.6-5.2-4.2-6.1
		c-0.8-1.1-1.3-2.2-2.5-2.7c-2.3-0.8-5.6,1.5-3.5,5.3c0.6,1.1,1.2,2.1,1.9,3.3C27.3,14.7,30.2,19.9,30.6,20.3z"/>
	<path class="st1" d="M35.2,14l0,0.2c0.3,0.3,0.8,1,1.1,1.5c0.4,0.6,0.7,1,1.1,1.6c0.5,0.7,1.9,2.7,2.3,3.1c0.7-1,3-5.1,3.8-6.4
		c0.6-1.1,1.2-2.2,1.9-3.3c0.7-1.3,1.1-2.5,0.2-4c-0.6-1-2-1.9-3.6-1.4c-1.3,0.4-1.8,1.5-2.6,2.6l-3.9,5.8
		C35.3,13.9,35.5,13.7,35.2,14z"/>
	<path class="st2" d="M30.6,20.3l0,0.2c0.5,0.5,1.8,2.9,2.2,3.6c0.3,0.6,0.8,1.3,1.1,1.8c0.3,0.5,0.8,1.5,1.2,1.8l0.1,0
		c0.2-0.5,0.8-1.3,1.1-1.8c0.4-0.6,0.7-1.2,1.1-1.8c0.4-0.6,1.8-3.1,2.2-3.5l0-0.2c-0.4-0.4-1.8-2.4-2.3-3.1
		c-0.4-0.5-0.7-0.9-1.1-1.6c-0.3-0.5-0.8-1.2-1.1-1.5c-0.5,0.4-1.8,2.4-2.3,3.2C32.4,18,31,20.1,30.6,20.3z"/>
	<path class="st1" d="M248,41.9c0.1-2.3,0.1-5,0-7.3c-0.1-7-9.2-9.7-13.9-5.2c-3.2,2.9-3.3,7.4-0.1,10.4c1.2,1.1,3.3,2.1,5.7,2.2
		C242.4,42,245.4,42,248,41.9z"/>
	<path class="st3" d="M244.4,38.7c0.1-2.6,0.4-5.5-1.3-7.1c-1.7-1.5-4.7-1.6-6.5,0c-1.8,1.6-1.8,4.2-0.1,5.8
		C238.1,39,241.4,38.9,244.4,38.7z"/>
	<path class="st0" d="M241.3,33.8c-1.7,0.7-0.6,2.6,0.9,2C243.5,35.3,242.7,33.2,241.3,33.8z"/>
	<path class="st0" d="M237.4,33.8c-0.5,0.2-1.1,0.6-0.7,1.5c0.2,0.5,1,0.8,1.7,0.5C239.7,35.3,238.9,33.2,237.4,33.8z"/>
	<path class="st1" d="M255,41.8c-0.2,0.1-0.5,0.1-0.8,0.2c-0.3,0-0.7,0.1-1.1,0.1c-0.9,0-1.5-0.1-1.8-0.4c-0.4-0.3-0.6-0.8-0.6-1.6
		v-8.7c0-0.5,0.1-1,0.4-1.4c0.3-0.4,0.6-0.7,1.1-1c0.6-0.4,1.4-0.7,2.3-0.9c0.9-0.2,1.8-0.3,2.8-0.3c2,0,3,0.7,3,2
		c0,0.3,0,0.6-0.1,0.9c-0.1,0.3-0.2,0.5-0.3,0.7c-0.4-0.1-1-0.1-1.6-0.1c-0.5,0-1.1,0.1-1.6,0.2c-0.5,0.1-1,0.3-1.5,0.5V41.8z"/>
	<linearGradient id="SVGID_1_" gradientUnits="userSpaceOnUse" x1="50.3104" y1="43.3451" x2="49.3852" y2="45.3292">
		<stop  offset="0" style="stop-color:#00BAC7"/>
		<stop  offset="1" style="stop-color:#0D4B9F"/>
	</linearGradient>
	<ellipse class="st4" cx="49.8" cy="44.3" rx="0.8" ry="0.8"/>
	<path class="st5" d="M36.1,27.3c-0.3,0-0.6,0.3-0.6,0.6s0.3,0.6,0.6,0.6c0.3,0,0.6-0.3,0.6-0.6S36.4,27.3,36.1,27.3z"/>
	<ellipse class="st6" cx="5.1" cy="25.9" rx="0.3" ry="0.8"/>
	<path class="st7" d="M4.9,26.7c-0.1,0-0.1-0.1-0.1-0.1c0-0.1,0.1-0.1,0.1-0.1C5,26.5,5,26.5,5,26.6C5,26.7,5,26.7,4.9,26.7z"/>
	<polygon class="st8" points="35.5,28.2 35.5,28.2 35.6,28.3 35.5,28.3 	"/>
	<path class="st1" d="M174.2,30.2c-0.4,0.2-0.9,1.2-1.2,1.6c-0.4,0.5-0.8,1.1-1.1,1.7c-0.4,0.7-1.7,2.8-2.2,3.3l-4-4.6
		c-1.4-1.6-2.9-3.2-4.4-4.4c-1.4-1.2-3.6-3.3-5.9-1.8c-1.5,1-3,3.2-3.9,4.9c-1.4,2.5-3,6.4-4,9.1c-0.4,1.3-0.6,2-1.7,2.7
		c-2.2,1.4-5.2-0.1-5.3-2.6c0.2-2.7,3.6-10,3.1-8.8c1.4-0.3,0.2,1.7,0.3,1.2c0.5-0.6,0.5-1,0.1-1.3l-0.4,0.2
		c0.6-2.3,4.2-8.9,5.3-10.9c6.6-11,11.1-7.7,18.2,0.5C167.8,21.8,173.7,29.2,174.2,30.2z"/>
	<path class="st1" d="M157.1,40c-7.7-1.3-4.9-11.5,1.6-10.3c2.8,0.5,5,3,4.5,6C162.7,38.3,160.1,40.5,157.1,40z"/>
	<path class="st1" d="M174.1,42.8l0-0.2c0.3-0.3,0.8-1,1.1-1.4c0.4-0.6,0.7-0.9,1.1-1.4c0.5-0.6,1.9-2.5,2.3-2.8
		c0.7,0.9,3,4.6,3.8,5.9c0.6,1,1.2,2,1.9,3.1c0.7,1.2,1.1,2.3,0.2,3.6c-0.6,0.9-2,1.7-3.6,1.3c-1.3-0.4-1.8-1.4-2.6-2.4l-3.9-5.3
		C174.3,42.8,174.5,43,174.1,42.8z"/>
	<path class="st9" d="M169.5,36.7L169.5,36.7c0.6-0.5,1.8-2.6,2.3-3.2c0.3-0.5,0.8-1.2,1.1-1.7c0.3-0.4,0.8-1.4,1.2-1.6L174,30
		c0.3,0.5,1.1,1.4,1.4,1.9c0.4,0.6,0.7,1.1,1.1,1.7c0.4,0.6,2,3.2,2.4,3.6l-0.2-0.2c-0.4,0.3-1.8,2.2-2.3,2.8
		c-0.4,0.5-0.7,0.9-1.1,1.4c-0.3,0.4-0.5,1.6-0.8,1.8c-0.5-0.5-2.1-2.7-2.6-3.3C171.4,39.1,170,36.9,169.5,36.7z"/>
	<path class="st6" d="M144.1,32.6c0.2,0,0.3-0.3,0.3-0.7c0-0.4-0.1-0.7-0.3-0.7c-0.2,0-0.3,0.3-0.3,0.7
		C143.8,32.3,144,32.6,144.1,32.6z"/>
	<path class="st7" d="M143.9,31.1c-0.1,0-0.1,0-0.1,0.1c0,0.1,0.1,0.1,0.1,0.1c0.1,0,0.1,0,0.1-0.1C144,31.1,143.9,31.1,143.9,31.1z
		"/>
	<g>
		<path class="st10" d="M262.3,20h-0.9v2.7h-0.3V20h-0.9v-0.3h2.1V20z"/>
		<path class="st10" d="M265.8,22.7h-0.3v-2c0-0.2,0-0.4,0-0.6h0c0,0.1-0.1,0.2-0.1,0.3l-1,2.3h-0.2l-1-2.3c0-0.1-0.1-0.2-0.1-0.3h0
			c0,0.1,0,0.3,0,0.6v2h-0.3v-3h0.5l0.9,2.1c0.1,0.2,0.1,0.3,0.1,0.4h0c0.1-0.2,0.1-0.3,0.1-0.4l0.9-2.1h0.4V22.7z"/>
	</g>
	<path class="st11" d="M263,25.6c2.4,0,4.4-2,4.4-4.4s-2-4.4-4.4-4.4c-2.4,0-4.4,2-4.4,4.4S260.6,25.6,263,25.6z"/>
</g>
</svg>
